<svg width="613.38" height="371.47" xmlns="http://www.w3.org/2000/svg" xmlns:xlink="http://www.w3.org/1999/xlink">
  <style>
    .st3{fill:#72361f}.st4{fill:#5b3318}.st5{fill:#783f21}.st6{opacity:.4}.st8{fill:none;stroke:#300f0f;stroke-width:6;stroke-linecap:round;stroke-linejoin:round;stroke-miterlimit:10}.st9{opacity:.44;fill:#72361f;enable-background:new}.st10{fill:#c9c9c9}.st14{fill:#aa3930}.st15{fill:#ababab}.st17{fill:#355e98}.st20{fill:#fdc457}.st21{fill:#f2b24c}.st22{fill:#323b40}.st26,.st32,.st33{fill:none;stroke:#300f0f;stroke-width:5.8435;stroke-linecap:round;stroke-linejoin:round;stroke-miterlimit:10}.st32,.st33{stroke:#cf8139;stroke-width:6}.st33{stroke-width:4.9126}
  </style>
  <path id="XMLID_46_" class="st3" d="M491 135.47v-51.9c0-19.9-16.1-36-36-36s-36 16.1-36 36v51.8c0 33.1-26.9 60-60 60v152c0 13.3 10.7 24 24 24h144c13.3 0 24-10.7 24-24v-152c-33.2.1-60-26.8-60-59.9z"/>
  <path id="XMLID_2_" class="st3" d="M441 47.572h16.4v8.3H441z"/>
  <path id="XMLID_43_" class="st4" d="M477 135.47v-51.9c0-19.9-16.1-36-36-36s-36 16.1-36 36v51.8c0 33.1-26.9 60-60 60v152c0 13.3 10.7 24 24 24h144c13.3 0 24-10.7 24-24v-152c-33.2.1-60-26.8-60-59.9z"/>
  <path id="XMLID_20_" class="st4" d="M537 195.47c-22.6 0-42.2-12.5-52.5-30.9l-55.5 22.4-28.1 15.6 66.6 10.4 69.5-13.8z"/>
  <circle id="XMLID_31_" class="st5" cx="441" cy="84.272" r="12"/>
  <path id="XMLID_1_" class="st3" d="M96 47.572h14v3.7H96z"/>
  <path id="XMLID_28_" class="st5" d="M96 72.272h345.1v24H96z"/>
  <g class="st6" transform="translate(-215.3 -277.43)">
    <defs>
      <path id="XMLID_32_" class="st6" d="M311.3 349.7h345.1v24H311.3z"/>
    </defs>
    <clipPath id="XMLID_34_">
      <use width="100%" height="100%" xlink:href="#XMLID_32_"/>
    </clipPath>
    <g id="XMLID_82_" clip-path="url(#XMLID_34_)">
      <path id="XMLID_11_" class="st8" d="M331.5 316.7c1.2 8.3 8.1 53.2 41.3 68.7 4 1.9 20.1 9.4 28.7 2.7 11.3-8.9-3.1-33.2 9.3-48 8-9.6 23.7-11 34-9.3 35.6 5.9 36.3 54.3 70.7 62 21.8 4.9 44.8-9.3 56.7-16.7 24.8-15.3 29.2-31.7 44-32 9.1-.2 22.5 5.6 39.3 35.3"/>
      <path id="XMLID_10_" class="st8" d="M358.8 336c-3.8 5.8-4.4 13-1.3 18.7 3 5.5 8.3 7.5 10 8 1.8.6 8.3 2.3 14-1.3 5.6-3.6 8.4-11.1 6.7-18.7"/>
      <path id="XMLID_95_" class="st8" d="M422.1 376c-.5-1.4-4.9-14.1 2.7-25.3.4-.7 6.9-10.1 15.3-10.7 11.9-.9 26.6 15.9 31.3 43.3"/>
      <path id="XMLID_96_" class="st8" d="M438.1 358c-3.4 1.7-4 8.6-2 13.3.4.9 2.9 6.6 7.3 6.7 4.3.1 8.2-5.3 8-10-.2-6.8-9.1-12-13.3-10z"/>
      <path id="XMLID_97_" class="st8" d="M495.5 335.4c.3 3.3 1.2 9.6 5.3 16 5.9 9.2 14.3 12.8 17.3 14 2.9 1.2 12.1 4.8 22.7 2 7-1.8 9.8-5.3 27.3-21.3 6.1-5.6 11.1-10 14-12.7"/>
      <path id="XMLID_98_" class="st8" d="M599.5 380c.9-8.2 6.3-14.8 13.3-16.7.7-.2 9.9-2.5 16 4 4.4 4.7 4.1 10.8 4 12"/>
      <path id="XMLID_99_" class="st8" d="M527.5 338c0 9.1 4.4 15.8 9.3 16.7 4.2.7 8.2-3 10-4.7 5-4.6 6.3-10.4 6.7-12.7"/>
    </g>
  </g>
  <path id="XMLID_101_" class="st9" d="M227.9 72.272h15.9v23.8h-15.9z"/>
  <path id="XMLID_134_" class="st9" d="M141.1 72.272h25.1v23.8h-25.1z"/>
  <path id="XMLID_103_" class="st9" d="M337 72.272h22v23.8h-22z"/>
  <g id="XMLID_107_" transform="translate(-215.3 -277.43)">
    <path id="XMLID_26_" class="st10" d="M424.7 317.8l7.1-32.6h18.9l7.2 32.6-8.8 23.4v70.3h-15.6v-70.3h-.1z"/>
    <path id="XMLID_24_" fill="#b5b5b5" d="M452.9 317.8l-7.2-32.6h5l7.2 32.6-8.8 23.4v70.3h-5v-70.3z"/>
    <path id="XMLID_15_" d="M417.2 556.4V442.3c0-5.5 3.3-10.3 8.1-12.3 2-.8 2.3-3.5.6-4.9l-6.7-5.6a7.79 7.79 0 01-2.8-6v-5.3c0-2 1.6-3.6 3.6-3.6h42.4c2 0 3.6 1.6 3.6 3.6v5.3c0 2.3-1 4.5-2.8 6l-6.7 5.6c-1.6 1.4-1.3 4 .6 4.9 4.8 2.1 8.1 6.8 8.1 12.3v114.1c0 7.4-6 13.4-13.4 13.4h-21.4c-7.2.1-13.2-6-13.2-13.4z" fill="#f45145"/>
    <path id="XMLID_16_" d="M457.4 556.4V442.3c0-5.5-3.3-10.3-8.1-12.3-2-.8-2.3-3.5-.6-4.9l6.7-5.6c1.8-1.5 2.8-3.7 2.8-6v-5.3c0-2-1.6-3.6-3.6-3.6h8c2 0 3.6 1.6 3.6 3.6v5.3c0 2.3-1 4.5-2.8 6l-6.7 5.6c-1.6 1.4-1.3 4 .6 4.9 4.8 2.1 8.1 6.8 8.1 12.3v114.1c0 7.4-6 13.4-13.4 13.4h-8c7.4.1 13.4-6 13.4-13.4z" fill="#db493e"/>
    <path id="XMLID_23_" class="st14" d="M437 550.3V455c0-2.8-2.2-5-5-5s-5 2.2-5 5v95.3c0 2.8 2.2 5 5 5s5-2.3 5-5z"/>
    <path id="XMLID_25_" class="st14" d="M455.5 550.3V455c0-2.8-2.2-5-5-5s-5 2.2-5 5v95.3c0 2.8 2.2 5 5 5s5-2.3 5-5z"/>
  </g>
  <g id="XMLID_108_" transform="translate(-215.3 -277.43)">
    <path id="XMLID_9_" class="st10" d="M583.4 284.7c-1.6 1.8-4 4.4-6 6.6-2.1 2.3-5.6 2.7-8.2.8-5.7-4.1-15.1-11.2-27-12.1-17.2-1.4-28.8 4.7-39.3 12.9-15.5 12.2-25.3 26.8-30.5 35.8 3.9 3.4 5.6 4.4 8.6 6.9 4.9-5.1 14.5-15.8 28.1-19.2 2.1-.5 5.8-1.4 10.2 0 1.5.5 4.3 1.6 6.8 4.4 4.3 4.8 4 10.7 4 12v38.8h25.5v-37.1c-.5-6.5 2.3-12.5 7.2-15 .4-.2 5.2-2.6 9.9-.8 3.4 1.3 7.6 5.2 10.8 8.3.3.3 1.1 1 2.4 1.5.7.2 1.5.4 2.2.3 4.6-.1 14-.3 20.5-.6 3.1-.1 5.5-2.6 5.5-5.7v-33.8c0-3.1-2.5-5.6-5.6-5.7-6.2-.1-15-.3-20.3-.4-1.8 0-3.6.8-4.8 2.1z"/>
    <g id="XMLID_12_">
      <path id="XMLID_27_" class="st15" d="M517.2 314.6c-2.8-3.2-6.2-4.5-7.8-5.1-5-1.6-9.4-.6-11.8 0-7.5 1.8-13.9 5.6-19.2 9.7-2.4 3.5-4.4 6.7-6 9.4 3.9 3.4 5.6 4.4 8.6 6.9 4.9-5.1 14.5-15.8 28.1-19.2 1.9-.5 5.3-1.3 9.3-.3-.3-.3-.7-.8-1.2-1.4z"/>
      <path id="XMLID_44_" class="st15" d="M612.7 323.2c-7.5.2-18.4.5-23.7.6-.9 0-1.8-.1-2.6-.4-1.5-.5-2.5-1.4-2.8-1.7-3.7-3.5-8.6-8-12.5-9.5-5.4-2.1-11 .8-11.4 1-5.6 3-8.8 9.8-8.3 17.4v41.2h4.3v-37.1c-.5-6.5 2.3-12.5 7.2-15 .4-.2 5.2-2.6 9.9-.8 3.4 1.3 7.6 5.2 10.8 8.3.3.3 1.1 1 2.4 1.5.7.2 1.5.4 2.2.3 4.6-.1 14-.3 20.5-.6 2.9-.1 5.3-2.4 5.5-5.2-.5-.1-1 0-1.5 0z"/>
    </g>
    <path id="XMLID_4_" d="M546 548.7h-4.8c-12.6 0-22.6-12.4-22.2-27.3l4.7-149.7h39.8l4.7 149.7c.4 14.9-9.6 27.3-22.2 27.3z" fill="#3b69a9"/>
    <path id="XMLID_93_" class="st17" d="M568.2 521.4l-4.7-149.7h-9.7l4.7 149.7c.4 13.9-8.3 25.6-19.7 27.1.8.1 1.6.2 2.4.2h4.8c12.6 0 22.6-12.4 22.2-27.3z"/>
    <path id="XMLID_7_" class="st17" d="M568.7 383.8h-50.2c-3.3 0-6-2.7-6-6s2.7-6 6-6h50.2c3.3 0 6 2.7 6 6s-2.7 6-6 6z"/>
  </g>
  <path id="XMLID_102_" transform="translate(-215.3 -277.43)" opacity=".23" fill="#72361f" d="M565.4 435.2L521.1 460l.7-22.5 42.7-29.4z"/>
  <g id="XMLID_109_" transform="translate(-215.3 -277.43)">
    <path id="XMLID_70_" class="st10" d="M468.4 595.3l294.3-169.8-80.5-102.9-265.7 205.8z"/>
    <path id="XMLID_65_" fill="#e1e1e1" d="M468.8 595.6l290.2-168-7.9-18.9-295.5 170z"/>
    <path id="XMLID_13_" class="st20" d="M823.4 357.7l-54.7-70.6c-8.4-10.9-24.1-12.9-35-4.4l-5.8 4.5 20.4 26.3c1.4-.5 2.8-.7 4.3-.7h1.3c.9.1 1.9.2 2.8.5.1 0 .3.1.4.1.2.1.4.1.7.2.2.1.4.1.6.2s.4.2.6.2c.2.1.5.2.7.3.1.1.3.1.4.2.4.2.7.4 1 .7.1.1.2.2.4.3.2.2.5.4.7.5.1.1.2.2.4.3.2.2.4.4.7.6l.3.3c.3.3.6.7.9 1l26 33.6c.3.4.5.7.8 1.1.1.1.1.2.2.4.2.3.3.5.4.8.1.1.1.3.2.4.1.3.2.5.4.8.1.1.1.3.2.4.1.4.3.8.4 1.2 0 .2.1.3.1.5.1.3.1.5.2.8 0 .2.1.4.1.6s0 .4.1.6c0 .2 0 .5.1.7v.5c0 1-.1 1.9-.2 2.8v.2c-.1.3-.1.6-.2 1v.1c-.4 1.4-1 2.7-1.8 4l21.6 27.9 3.4-2c12.8-7.5 16.2-24.9 6.9-36.9z"/>
    <g id="XMLID_135_">
      <path id="XMLID_146_" class="st21" d="M784.7 344.5l-26-33.6c-.3-.4-.6-.7-.9-1l-.3-.3c-.2-.2-.4-.4-.7-.6-.1-.1-.2-.2-.4-.3-.2-.2-.5-.4-.7-.5-.1-.1-.2-.2-.4-.3-.3-.2-.7-.5-1-.7-.1-.1-.3-.1-.4-.2-.2-.1-.5-.2-.7-.3s-.4-.2-.6-.2c-.2-.1-.4-.1-.6-.2s-.4-.2-.7-.2c-.1 0-.3-.1-.4-.1-.9-.3-1.9-.4-2.8-.5h-1.3c-1.4 0-2.9.3-4.3.7L728 287.1l20.4 26.3c1.4-.5 2.8-.7 4.3-.7h1.3c.9.1 1.9.2 2.8.5.1 0 .3.1.4.1.2.1.4.1.7.2.2.1.4.1.6.2s.4.2.6.2c.2.1.5.2.7.3.1.1.3.1.4.2.4.2.7.4 1 .7.1.1.2.2.4.3.2.2.5.4.7.5.1.1.2.2.4.3.2.2.4.4.7.6l.3.3c.3.3.6.7.9 1l20.7 26.7c-.3.1-.5-.1-.6-.3z"/>
      <path id="XMLID_149_" class="st21" d="M823.4 357.7l-4.9-6.3c8.2 11.9 4.6 28.4-8.1 35.8l-3.4 2-15.8-20.5 21.6 27.9 3.4-2c13.1-7.5 16.5-24.9 7.2-36.9z"/>
    </g>
    <g id="XMLID_45_">
      <path id="XMLID_67_" class="st22" d="M761.1 315.3c-.3-.2-.7-.5-1-.7.3.2.7.5 1 .7z"/>
      <path id="XMLID_68_" class="st22" d="M762.5 316.4l.6.6c-.1-.2-.3-.4-.6-.6z"/>
      <path id="XMLID_72_" class="st22" d="M759.7 314.4c-.2-.1-.5-.2-.7-.3.2.1.4.2.7.3z"/>
      <path id="XMLID_76_" class="st22" d="M755.3 312.9z"/>
      <path id="XMLID_77_" class="st22" d="M752.8 312.7c-.1 0-.1 0 0 0-.1 0-.1 0 0 0z"/>
      <path id="XMLID_79_" class="st22" d="M793.3 358.9c0 .2 0 .4.1.6 0-.2-.1-.4-.1-.6z"/>
      <path id="XMLID_81_" class="st22" d="M758.4 313.8c-.1 0-.2-.1-.3-.1.1.1.2.1.3.1z"/>
      <path id="XMLID_83_" class="st22" d="M753.9 312.8h-.2.2z"/>
      <path id="XMLID_84_" class="st22" d="M793.2 358c0 .1 0 .2.1.3-.1-.1-.1-.2-.1-.3z"/>
      <path id="XMLID_85_" class="st22" d="M792.6 355.9c.1.2.2.5.2.8-.1-.3-.1-.6-.2-.8z"/>
      <path id="XMLID_86_" class="st22" d="M793.4 360.2v.5-.5z"/>
      <path id="XMLID_87_" class="st22" d="M792.1 354.7c.1.1.1.3.2.4-.1-.2-.2-.3-.2-.4z"/>
      <path id="XMLID_88_" class="st22" d="M791.1 368.7c-.9 1.4-2 2.6-3.3 3.6l-8.5 6.6c-12.8 9.9-31.1 7.6-41-5.2l-8-10.4c-9.9-12.8-7.6-31.1 5.2-41l8.5-6.6c1.3-1 2.8-1.8 4.4-2.3L728 287.1l-53.3 41.3 79.2 102.2 62.3-36-3.4 2z"/>
      <path id="XMLID_89_" class="st22" d="M791.4 353.4c.1.1.2.3.2.4 0-.1-.1-.2-.2-.4z"/>
      <path id="XMLID_90_" class="st22" d="M790.4 351.9c.3.4.5.7.8 1.1-.3-.3-.5-.7-.8-1.1z"/>
    </g>
  </g>
  <path id="XMLID_195_" transform="translate(-215.3 -277.43)" fill="#2d363a" d="M748.4 423.7l58.7-34.3 5.6 7.2-58.9 34z"/>
  <path id="XMLID_14_" d="M523 371.47H172.8v-176h364.1v162c.1 7.7-6.2 14-13.9 14z" fill="#7d4025"/>
  <g transform="translate(-215.3 -277.43)">
    <defs>
      <path id="SVGID_1_" d="M738.3 648.9H388.1v-176h364.1v162c.1 7.7-6.2 14-13.9 14z"/>
    </defs>
    <clipPath id="SVGID_2_">
      <use width="100%" height="100%" xlink:href="#SVGID_1_"/>
    </clipPath>
    <g id="XMLID_166_" clip-path="url(#SVGID_2_)" opacity=".08">
      <path id="XMLID_147_" class="st8" d="M414.1 598.1c9-15.2 40.8 1.6 26.3 18.3-11.3 13.1-34.9-3.7-26.3-18.3 4.6-7.8-3.5 5.9 0 0z"/>
      <path id="XMLID_148_" class="st26" d="M451 460.3c.1 24.3 8.2 60.9 23.3 73.3 30 24.5 124.7-16 126-55.3C601.9 430.2 463.8 382 445 405c-5.8 7.1-5.3 27.6-1.7 28.7 1.2.4 2.3-2.2 3.7-1.9 4.2.6 4 23.4 4 28.5z"/>
      <path id="XMLID_150_" class="st8" d="M388.4 481.2c-23.9 66.5 71.3 53.5 89.1 97.4 18.8 46.3-42.4 82.5-78.3 93.1"/>
      <path id="XMLID_154_" class="st8" d="M391.8 578.7c40.4-27.6 81.9-3.4 57.3 42.1-14.4 26.6-43.5 40.2-72.9 41.9"/>
      <path id="XMLID_155_" class="st8" d="M728.3 533.6c3.9 2.4 10.6 5.6 19 5.6 3.8 0 8.6-.1 12.7-3.4 1.1-.9 4.4-3.6 4.5-7.1.2-6.3-9.5-12.4-18.3-13-7.1-.4-17.1 2.6-19 9.8-.8 3.2.2 6.2 1.1 8.1z"/>
      <path id="XMLID_161_" class="st8" d="M715.2 556.9c9.1 5 18.1 3.6 36 .7 12.1-1.9 18.7-3.1 25.4-8.5 1.9-1.5 11.9-9.6 12.7-21.9 1.1-15.9-13.9-28.9-26.1-33.9-21.2-8.6-40.9 4.1-44.4 6.3-6.1 4-21.1 13.6-21.2 29.6-.1 12.7 9 23 17.6 27.7z"/>
      <path id="XMLID_162_" class="st8" d="M786.1 576.7c-5.3 4.1-22.7 16.9-46.7 14-19.2-2.3-31.3-13.4-34.7-16.7-15-14.7-17.4-32.4-18-38s-2-19 5.2-33.5c6.1-12.2 15-18.7 20.5-22.6 22.6-16.2 47-13.9 51.5-13.4 8.4.9 21.1 2.3 32.5 12 20 17 17.4 45.4 16.9 50.1-2.6 28.7-23.2 45.1-27.2 48.1z"/>
      <path id="XMLID_164_" class="st8" d="M795.7 590c-3.3 3.2-8.5 7.5-15.7 11-27.6 13.2-58.5.4-75.7-6.7-17.7-7.3-29.9-15.8-46.7-27.3-29.1-20.1-32.6-28.5-51.3-33.3-6-1.6-25.2-6.2-44.5 2.5-5.8 2.6-10.2 6-14.8 9.8-22.3 18.2-28.5 38.8-48 82-4.5 10-11.2 24.5-20 42"/>
      <path id="XMLID_165_" class="st8" d="M523 724c15.8 5.1 47.9-66.9 69.5-59.2 12.1 4.3 10.9 30.3 20.5 31.2 10.6.9 21-30 22-33 2.5-7.7 19.4-58.9-9-92-3.9-4.5-12.7-14.5-27.2-17.7 0 0-15.5-3.4-33.8 5.7-48.3 23.7-62.5 158.3-42 165z"/>
      <path id="XMLID_173_" class="st8" d="M565 637c5.7 4.2 20.2-5.7 28-15 3.9-4.6 12.1-14.3 8.4-21.8-2.9-5.8-11.8-7.9-18.4-6.2-7.5 1.9-11 8.5-14 14-4.8 8.9-9.6 24.9-4 29z"/>
      <path id="XMLID_174_" class="st8" d="M604 438.3c9.8 10.1 20.7 24.5 17.6 38.8-2.3 10.6-11 15.1-9.3 17.9 3.3 5.5 39.9-2.4 64-28 12.8-13.6 18.7-28.7 21.5-38.6"/>
      <path id="XMLID_177_" class="st8" d="M507 497c7.6 8.2 22.6 15.4 34 10 11-5.2 13.4-19.6 14-23.3 5-29.8-21.4-65.8-37-62.9-17 3.1-31.4 54-11 76.2z"/>
      <path id="XMLID_178_" class="st8" d="M522.2 435.7c5.6.1 10.4 17.3 10.8 31.3.2 7-.5 23.8-5.3 24.7-6 1-19.7-22.8-14-43.1.1-.5 3.7-13 8.5-12.9z"/>
      <path id="XMLID_179_" class="st8" d="M798.2 632.9c-39 24.1-57.4 23.2-67 16.9-6.9-4.5-9.9-12.3-28.2-26.8-7.7-6.1-13.8-10-21.2-9.2-7.2.8-12.1 5.6-13.4 7.1-4.7 5-5.7 10.8-7.1 19.8-1.6 10.4-.1 13.3-2.1 23.3-1.1 5.2-2.5 9.3-3.5 12"/>
      <path id="XMLID_53_" class="st8" d="M680.8 657.4c-7.3-10.6-8.2-20.9-4-24.7 5-4.4 16.1 1.4 17.3 2 12.4 6.6 15.9 20.4 16.7 24"/>
      <path id="XMLID_56_" class="st8" d="M501.5 554.2c-7.2 1.2-14.8 8.2-13.3 16 1 5.2 5.9 10.1 10.7 10 9.1-.1 16.7-18.2 12-24-2.6-3.2-8.2-2.2-9.4-2z"/>
      <path id="XMLID_137_" class="st8" d="M548 613c3.9-12.7 9.7-31.5 27-39 2.4-1 14.7-6.4 27.8-.6 13.6 6 17.8 19.6 18.7 22.7 5.7 20.3-9.8 36.4-10.7 37.3-3.1 3.2-5.8 4.6-19.3 10.7-26.3 11.7-39.5 17.5-43.5 15-11.8-7.5-1.3-41.7 0-46.1z"/>
      <path id="XMLID_145_" d="M403 487.7c.5 4.3 2.9 22.9 17.4 30.7 4.3 2.3 13.5 5.8 17.4 2 5.1-4.9-3.8-16.8-9.3-40.1-6.6-27.4-1.7-41.7-6-42.7-6.1-1.5-22.8 24.1-19.5 50.1z" fill="none" stroke="#300f0f" stroke-width="7.805" stroke-linecap="round" stroke-linejoin="round" stroke-miterlimit="10"/>
      <path id="XMLID_6_" class="st8" d="M761 662c-20.6-11.1-30.3-27.1-27-34 3.3-6.8 21.7-9.1 43 0"/>
      <path id="XMLID_8_" class="st8" d="M673 599c-.1-4-9-9.5-14-6-4.1 2.9-4.1 10.5-1 13 4.2 3.4 15.1-2.5 15-7z"/>
      <path id="XMLID_18_" d="M628 508c-5 2.6-7.4 3.9-8 6-2.1 7.3 12.8 18.5 26 23.5 8 3.1 17.4 6.5 24.3 1.6 8.5-6 8.2-21.5 2.7-30.1-.9-1.4-3.2-4.9-7.6-6.9-2.1-1-4.8-2.2-11.4-1.1-12.7 2.2-18.6 3.1-26 7z" fill="none" stroke="#300f0f" stroke-width="5.352" stroke-linecap="round" stroke-linejoin="round" stroke-miterlimit="10"/>
      <path id="XMLID_21_" class="st8" d="M650.4 514.8c-6 .6-11.1 5.4-9 9 1.7 2.9 7.6 4.5 12.3 3.4 5.3-1.2 8.8-5.7 6.6-9-1.7-2.6-6.2-3.8-9.9-3.4z"/>
      <path id="XMLID_29_" class="st8" d="M489.7 443.7c-2 3.5-17.3 31.8-4 59.3 2.2 4.5 9 18.7 24 24 22 7.8 46.3-9 58-24.7 12.9-17.3 13-36.5 12.7-44"/>
    </g>
  </g>
  <circle id="XMLID_49_" class="st5" cx="174.2" cy="235.87" r="9"/>
  <path id="XMLID_3_" class="st3" d="M146 135.47v-51.9c0-19.9-16.1-36-36-36s-36 16.1-36 36v51.8c0 33.1-26.9 60-60 60v152c0 13.3 10.7 24 24 24h144c13.3 0 24-10.7 24-24v-152c-33.2.1-60-26.8-60-59.9z"/>
  <path id="XMLID_17_" class="st3" transform="translate(-215.3 -277.43)" d="M413.9 634.9h341.5l-13 14H398.9z"/>
  <path id="XMLID_42_" class="st3" d="M537 195.47v151.9c0 5.5-4.5 10-10 10h-44.4v14h44.5c13.3 0 24-10.7 24-24v-152H537z"/>
  <path id="XMLID_5_" d="M132 135.47v-51.9c0-19.9-16.1-36-36-36s-36 16.1-36 36v51.8c0 33.1-26.9 60-60 60v152c0 13.3 10.7 24 24 24h144c13.3 0 24-10.7 24-24v-152c-33.2.1-60-26.8-60-59.9z" fill="#d98c40"/>
  <path id="XMLID_69_" d="M2.1 357.47c3.8 8.3 12.1 14 21.8 14h144c9.7 0 18-5.7 21.8-14z" fill="#c87634"/>
  <g transform="translate(-215.3 -277.43)">
    <defs>
      <path id="SVGID_3_" d="M347.3 412.9V361c0-19.9-16.1-36-36-36s-36 16.1-36 36v51.8c0 33.1-26.9 60-60 60v152c0 13.3 10.7 24 24 24h144c13.3 0 24-10.7 24-24v-152c-33.2.1-60-26.8-60-59.9z"/>
    </defs>
    <clipPath id="SVGID_4_">
      <use width="100%" height="100%" xlink:href="#SVGID_3_"/>
    </clipPath>
    <g id="XMLID_117_" clip-path="url(#SVGID_4_)">
      <path id="XMLID_104_" class="st32" d="M252.1 678.7c-18.3-25.6-6.3-74 23.3-89.3 13.8-7.1 27.2-4.9 31.1-4.3 37.2 6.6 69.2 55.1 56.7 84-14.2 32.9-87.1 43-111.1 9.6z"/>
      <path id="XMLID_106_" class="st32" d="M216.1 650.7c-8-22.4 10.7-56.1 35.7-72 46.7-29.8 98.2 13.2 134-16 29.9-24.5 18.6-74.8 25-75 9.7-.3 58.1 115.1 0 176-56.7 59.4-179.4 29.9-194.7-13z"/>
      <path id="XMLID_110_" class="st32" d="M277.8 656.7c-9.2-10-14-27.4-5.7-40 6.2-9.4 17.2-11.4 20.7-12 15.9-3 41.4 3.1 46 22.7 3.9 16.5-9 34.7-26 39.3-12.4 3.4-26.3-.5-35-10z"/>
      <path id="XMLID_111_" class="st33" d="M379.5 625.7c5.3-2.4 5.9-19.5-2.5-25.8-2.9-2.2-8.3-4.1-11.9-1.6-3.9 2.6-3.4 8.8-3.3 9.8.9 10.3 12.7 19.9 17.7 17.6z"/>
      <path id="XMLID_112_" class="st32" d="M212.1 527.4c7.3-2.6 17.6 2.2 21.3 9.3 8.9 17.1-20.1 48.8-29.3 45.3-9.4-3.5-8.7-48.6 8-54.6z"/>
      <path id="XMLID_113_" class="st32" d="M207.8 499.7c7 6.1 18 14.2 33 20.3 19.2 7.8 36.3 8.9 46.7 8.7 15.6-3.9 24.2-10.7 29.3-17 26.1-31.9 5.6-103.7-54-177"/>
      <path id="XMLID_115_" class="st32" d="M219.4 470c8 19.7 33.8 35.9 52.4 28.7 13-5 18-19.6 19.6-24.2 11-32-8.1-76.9-29.6-78.8-22.4-1.9-55.5 42.2-42.4 74.3z"/>
      <path id="XMLID_116_" class="st32" d="M403.8 377.7c-5.9-20-23.1-47.3-38.9-44.9-18.2 2.8-23.5 43.8-25.1 48.9-11.6 37.3 7.3 84.7 26 87 13.9 1.7 27-22.6 31-30 3.2-5.9 15.9-31.1 7-61z"/>
      <path id="XMLID_132_" class="st32" d="M352.9 490.3c-3 1.6-7.1 4.5-25.1 40.4-8.7 17.3-9.6 20.3-8 23 4.8 8.2 29.6 6.4 46.6-4.9 20.3-13.6 33.8-43.1 24-55.5-7.1-9.1-25.6-9.4-37.5-3z"/>
      <path id="XMLID_136_" class="st32" d="M363.4 505.3c-11.1 7.8-21.3 22.8-17.6 27.4 4.2 5.2 27.7-1.1 32.5-15.2 1.9-5.7 1.2-14.1-3-16.2-3.6-1.7-8.5 1.6-11.9 4z"/>
      <path id="XMLID_139_" class="st32" d="M296.8 628.7c-10.9 5.8-7.5 36.6 1.3 39.3 7.7 2.4 26.9-14.8 21.3-28.7-3.4-8.7-16-14.1-22.6-10.6z"/>
      <path id="XMLID_140_" class="st32" d="M244.8 548.7c-.5 3.3 8.9 7.9 16.7 8.7 2.7.3 7.4.7 9.3-2 1.6-2.2.9-5.8-.7-8-5.2-7.2-24.6-3.2-25.3 1.3z"/>
      <path id="XMLID_141_" class="st32" d="M232.1 454.7c1 16 18.6 31.5 27.7 28 8.2-3.2 12.3-22.9 3.7-34.7-6-8.2-18.9-13.6-26-8.7-6.1 4.2-5.5 14-5.4 15.4z"/>
      <path id="XMLID_114_" class="st32" d="M305.8 349.7c-3.7 2.5-3.3 13.9 4 20 8.2 6.8 20.6 3.3 22-1 2.2-6.7-20-23.1-26-19z"/>
      <path id="XMLID_50_" class="st33" d="M452.8 570.7c-14.2-5.1-40.3-8.1-53 8-14.3 18.1-.2 45.8 2 50 1.6 3 14.8 26.9 43 31 16.7 2.4 41.4-1.8 50-18 12-22.7-12.1-60.2-42-71z"/>
    </g>
  </g>
  <circle id="XMLID_57_" class="st3" cx="174.2" cy="283.47" r="9"/>
  <circle id="XMLID_105_" class="st3" cx="174.2" cy="235.87" r="9"/>
  <circle id="XMLID_60_" class="st3" cx="174.2" cy="330.97" r="9"/>
  <circle id="XMLID_64_" class="st3" cx="16.8" cy="235.87" r="9"/>
  <circle id="XMLID_63_" class="st3" cx="16.8" cy="283.47" r="9"/>
  <circle id="XMLID_61_" class="st3" cx="16.8" cy="330.97" r="9"/>
  <circle id="XMLID_38_" class="st3" cx="96" cy="84.272" r="12"/>
</svg>
